<?xml version="1.0" standalone="no"?>
<!DOCTYPE svg PUBLIC "-//W3C//DTD SVG 20010904//EN"
 "http://www.w3.org/TR/2001/REC-SVG-20010904/DTD/svg10.dtd">
<svg version="1.0" xmlns="http://www.w3.org/2000/svg"
 width="260.000000pt" height="260.000000pt" viewBox="0 0 260.000000 260.000000"
 preserveAspectRatio="xMidYMid meet">
<metadata>
Created by potrace 1.14, written by Peter Selinger 2001-2017
</metadata>
<g transform="translate(0.000000,260.000000) scale(0.100000,-0.100000)"
fill="#000000" stroke="none">
<path d="M1023 1946 c-45 -6 -87 -16 -93 -22 -14 -14 -15 -1253 -1 -1267 10
-10 111 -16 111 -6 0 3 28 7 62 8 35 1 67 6 72 11 6 6 10 153 10 357 l1 347
40 23 c22 13 46 21 53 18 6 -2 12 0 12 5 0 13 56 13 81 0 10 -6 19 -19 19 -30
0 -10 4 -22 10 -25 6 -4 10 -135 10 -354 0 -327 3 -398 19 -372 4 5 55 13 114
17 84 5 110 11 116 23 5 9 8 53 7 98 0 44 2 79 6 77 4 -2 10 0 13 6 4 6 1 9
-6 8 -16 -4 -20 140 -4 161 6 9 6 13 0 9 -6 -4 -10 19 -10 62 0 39 4 66 9 63
5 -4 6 0 1 7 -13 20 -13 180 0 180 7 0 7 3 0 8 -6 4 -11 35 -10 69 0 35 -3 63
-6 63 -4 0 -10 11 -13 25 -9 35 -74 105 -113 122 -60 25 -138 17 -219 -22 -40
-19 -79 -41 -86 -48 -50 -47 -48 -52 -47 119 1 88 1 185 0 217 l-1 57 -37 -2
c-21 0 -75 -6 -120 -12z"/>
<path d="M1194 1326 c1 -8 5 -18 8 -22 4 -3 5 1 4 10 -1 8 -5 18 -8 22 -4 3
-5 -1 -4 -10z"/>
</g>
</svg>
